# xmcd
#
# Track frame offsets: 
#        150
#        11376
#        22054
#        31197
#        40968
#        53307
#        62193
#        72839
#        83050
#        92231
#        106725
#        116368
#        126529
#        135748
#        145579
#        152662
#        163535
#        174081
#        183732
#        193743
#
# Disc length: 2722 seconds
#
# Revision: 1
# Processed by: cddbd v1.5.2PL0 Copyright (c) Steve Scherf et al.
# Submitted via: ExactAudioCopy v1.3
#
DISCID=040aa014
DTITLE=Don Gibson - 80 Original Hits And Rarities_CD4
DYEAR=1900
DGENRE=Country
TTITLE0=It Has To Be
TTITLE1=Didn't Work Out, Did It
TTITLE2=Do You Think
TTITLE3=It's My Way
TTITLE4=I Wish It Had Been A Dream
TTITLE5=Even Tho'
TTITLE6=Ages And Ages Ago
TTITLE7=Who Cares
TTITLE8=As Much
TTITLE9=Almost
TTITLE10=A Stranger To Me
TTITLE11=Midnight
TTITLE12=Foggy River
TTITLE13=Lonesome Old House
TTITLE14=Won't Cha Come Back To Me
TTITLE15=Heartbreak Avenue
TTITLE16=Big Hearted Me
TTITLE17=I Couldn't Care Less
TTITLE18=Ice Cold Heart
TTITLE19=Don't Tell Me Your Troubles
EXTD=
EXTT0=
EXTT1=
EXTT2=
EXTT3=
EXTT4=
EXTT5=
EXTT6=
EXTT7=
EXTT8=
EXTT9=
EXTT10=
EXTT11=
EXTT12=
EXTT13=
EXTT14=
EXTT15=
EXTT16=
EXTT17=
EXTT18=
EXTT19=
PLAYORDER=
